<svg width="255" height="508" viewBox="0 0 255 508" fill="none" xmlns="http://www.w3.org/2000/svg">
<path d="M254.496 382.97C230.069 382.97 210.192 363.094 210.192 338.667H218.188C218.188 358.685 234.478 374.974 254.496 374.974V382.97Z" fill="#255345"/>
<path d="M254.496 407.979C216.274 407.979 185.183 376.888 185.183 338.667H193.179C193.179 372.479 220.683 399.983 254.496 399.983V407.993V407.979Z" fill="#255345"/>
<path d="M254.496 432.988C202.494 432.988 160.189 390.683 160.189 338.667H168.185C168.185 386.26 206.903 424.992 254.496 424.992V432.988Z" fill="#255345"/>
<path d="M254.496 457.997C188.713 457.997 135.18 404.463 135.18 338.667H143.176C143.176 400.054 193.123 450.001 254.496 450.001V457.997Z" fill="#255345"/>
<path d="M254.496 482.991C174.919 482.991 110.172 418.258 110.172 338.667H118.167C118.167 413.834 179.328 474.995 254.496 474.995V482.991Z" fill="#255345"/>
<path d="M254.496 508C161.125 508 85.1627 432.038 85.1627 338.667H93.1587C93.1587 427.629 165.534 499.99 254.496 499.99V507.986V508Z" fill="#255345"/>
<path d="M169.829 125.029C145.402 125.029 125.526 144.906 125.526 169.333H133.521C133.521 149.315 149.811 133.025 169.829 133.025V125.029Z" fill="#D51317"/>
<path d="M169.829 100.021C131.607 100.021 100.517 131.111 100.517 169.333H108.513C108.513 135.52 136.017 108.017 169.829 108.017V100.006V100.021Z" fill="#D51317"/>
<path d="M169.829 75.0119C117.827 75.0119 75.5222 117.317 75.5222 169.333H83.5182C83.5182 121.74 122.236 83.0078 169.829 83.0078V75.0119Z" fill="#D51317"/>
<path d="M169.829 50.0032C104.047 50.0032 50.5134 103.537 50.5134 169.333H58.5094C58.5094 107.946 108.456 57.9991 169.829 57.9991V50.0032Z" fill="#D51317"/>
<path d="M169.83 25.0086C90.2525 25.0086 25.5049 89.742 25.5049 169.333H33.5009C33.5009 94.1654 94.6616 33.0046 169.83 33.0046V25.0086Z" fill="#D51317"/>
<path d="M169.829 -9.15527e-05C76.4579 -9.15527e-05 0.496094 75.9617 0.496094 169.333H8.49207C8.49207 80.3709 80.8671 8.01007 169.829 8.01007V0.0140839V-9.15527e-05Z" fill="#D51317"/>
<path d="M1.16309 169.333H85.8293V254H1.16309V169.333Z" fill="#D51317"/>
<path d="M1.16269 231.841C13.3834 231.841 23.3217 241.779 23.3217 253.985H19.3237C19.3237 243.976 11.186 235.839 1.16269 235.839V231.841Z" fill="white"/>
<path d="M1.16304 219.336C20.2739 219.336 35.8263 234.888 35.8263 253.985H31.8283C31.8283 237.086 18.0764 223.334 1.17722 223.334V219.336H1.16304Z" fill="white"/>
<path d="M1.16304 206.832C27.164 206.832 48.3164 227.984 48.3164 253.985H44.3184C44.3184 230.181 24.9666 210.83 1.16304 210.83V206.832Z" fill="white"/>
<path d="M1.16278 194.328C34.0539 194.328 60.8204 221.094 60.8204 253.986H56.8225C56.8225 223.292 31.8564 198.326 1.16278 198.326V194.328Z" fill="white"/>
<path d="M1.16288 181.837C40.9583 181.837 73.3248 214.204 73.3248 253.999H69.3269C69.3269 216.416 38.7466 185.835 1.16288 185.835V181.837Z" fill="white"/>
<path d="M1.16309 169.333C47.8486 169.333 85.8293 207.314 85.8293 254H81.8314C81.8314 209.511 45.6512 173.331 1.16309 173.331V169.333Z" fill="white"/>
<path d="M85.1628 254H169.829V338.667H85.1628V254Z" fill="#255345"/>
<path d="M85.1627 316.508C97.3835 316.508 107.322 326.446 107.322 338.652H103.324C103.324 328.643 95.1719 320.506 85.1627 320.506V316.508Z" fill="white"/>
<path d="M85.1628 304.003C104.274 304.003 119.826 319.556 119.826 338.652H115.828C115.828 321.753 102.076 308.001 85.1628 308.001V304.003Z" fill="white"/>
<path d="M85.163 291.513C111.164 291.513 132.317 312.666 132.317 338.667H128.319C128.319 314.877 108.952 295.511 85.163 295.511V291.513Z" fill="white"/>
<path d="M85.1631 279.009C118.054 279.009 144.821 305.775 144.821 338.667H140.823C140.823 307.973 115.857 283.007 85.1631 283.007V279.009Z" fill="white"/>
<path d="M85.1626 266.504C124.958 266.504 157.325 298.871 157.325 338.667H153.327C153.327 301.083 122.747 270.502 85.1626 270.502V266.504Z" fill="white"/>
<path d="M85.1628 254C131.848 254 169.829 291.981 169.829 338.667H165.831C165.831 294.193 129.637 257.998 85.1628 257.998V254Z" fill="white"/>
<path d="M169.829 84.6667H254.496V169.333H169.829V84.6667Z" fill="#255345"/>
<path d="M169.829 147.174C182.05 147.174 191.989 157.112 191.989 169.319H187.991C187.991 159.31 179.839 151.172 169.829 151.172V147.174Z" fill="white"/>
<path d="M169.829 134.67C188.94 134.67 204.493 150.222 204.493 169.319H200.495C200.495 152.42 186.743 138.668 169.829 138.668V134.67Z" fill="white"/>
<path d="M169.83 122.18C195.831 122.18 216.983 143.332 216.983 169.333H212.985C212.985 145.544 193.619 126.178 169.83 126.178V122.18Z" fill="white"/>
<path d="M169.83 109.675C202.721 109.675 229.488 136.442 229.488 169.333H225.49C225.49 138.639 200.524 113.673 169.83 113.673V109.675Z" fill="white"/>
<path d="M169.829 97.171C209.625 97.171 241.992 129.538 241.992 169.333H237.994C237.994 131.749 207.413 101.169 169.829 101.169V97.171Z" fill="white"/>
<path d="M169.829 84.6667C216.515 84.6667 254.496 122.648 254.496 169.333H250.498C250.498 124.859 214.304 88.6647 169.829 88.6647V84.6667Z" fill="white"/>
<g clip-path="url(#clip0_31_718)">
<path d="M0 254H85.3281V338.336H0" fill="#0CA590"/>
<path d="M85.3281 276.073C73.0118 276.073 62.9959 266.173 62.9959 254H67.0252C67.0252 263.97 75.2408 272.09 85.3281 272.09V276.073Z" fill="#255345"/>
<path d="M85.3281 288.528C66.0679 288.528 50.3939 273.036 50.3939 254H54.4231C54.4231 270.848 68.2825 284.546 85.3281 284.546V288.528Z" fill="#255345"/>
<path d="M85.3281 300.97C59.1239 300.97 37.8061 279.914 37.8061 254H41.8354C41.8354 277.711 61.3385 296.987 85.3281 296.987V300.97Z" fill="#255345"/>
<path d="M85.3281 313.425C52.1799 313.425 25.2041 286.777 25.2041 254H29.2333C29.2333 284.574 54.3945 309.443 85.3281 309.443V313.425Z" fill="#255345"/>
<path d="M85.3281 325.881C45.2216 325.881 12.6021 293.64 12.6021 254H16.6313C16.6313 291.437 47.4506 321.898 85.3281 321.898V325.881Z" fill="#255345"/>
<path d="M85.3281 338.336C38.2776 338.336 0 300.504 0 254H4.02923C4.02923 298.315 40.5066 334.354 85.3281 334.354V338.336Z" fill="#255345"/>
</g>
<path d="M254.496 169.333H169.829V254H254.496" fill="#0CA590"/>
<path d="M169.829 191.492C182.05 191.492 191.988 181.554 191.988 169.333H187.99C187.99 179.342 179.838 187.494 169.829 187.494V191.492Z" fill="#255345"/>
<path d="M169.829 203.997C188.94 203.997 204.493 188.444 204.493 169.333H200.495C200.495 186.247 186.743 199.999 169.829 199.999V203.997Z" fill="#255345"/>
<path d="M169.829 216.487C195.83 216.487 216.983 195.349 216.983 169.333H212.985C212.985 193.137 193.633 212.489 169.829 212.489V216.487Z" fill="#255345"/>
<path d="M169.829 228.991C202.721 228.991 229.487 202.239 229.487 169.333H225.489C225.489 200.027 200.523 224.993 169.829 224.993V228.991Z" fill="#255345"/>
<path d="M169.829 241.496C209.625 241.496 241.992 209.129 241.992 169.333H237.994C237.994 206.917 207.413 237.498 169.829 237.498V241.496Z" fill="#255345"/>
<path d="M169.829 254C216.515 254 254.496 216.019 254.496 169.333H250.498C250.498 213.822 214.303 250.002 169.829 250.002V254Z" fill="#255345"/>
<path d="M85.1627 169.333H169.829V254H85.1627V169.333Z" fill="white"/>
<path d="M169.829 191.492C157.609 191.492 147.67 181.554 147.67 169.333H151.668C151.668 179.342 159.806 187.494 169.829 187.494V191.492Z" fill="#255345"/>
<path d="M169.829 203.997C150.718 203.997 135.166 188.444 135.166 169.333H139.164C139.164 186.233 152.916 199.985 169.829 199.985V203.983V203.997Z" fill="#255345"/>
<path d="M169.829 216.487C143.828 216.487 122.676 195.349 122.676 169.333H126.674C126.674 193.137 146.026 212.489 169.829 212.489V216.487Z" fill="#255345"/>
<path d="M169.829 228.991C136.938 228.991 110.171 202.225 110.171 169.333H114.169C114.169 200.027 139.136 224.993 169.829 224.993V228.991Z" fill="#255345"/>
<path d="M169.829 241.496C130.034 241.496 97.667 209.129 97.667 169.333H101.665C101.665 206.917 132.245 237.498 169.829 237.498V241.496Z" fill="#255345"/>
<path d="M169.829 254C123.144 254 85.1627 216.019 85.1627 169.333H89.1607C89.1607 213.807 125.341 250.002 169.829 250.002V254Z" fill="#255345"/>
<path d="M169.829 254H254.496V338.667H169.829V254Z" fill="white"/>
<path d="M254.496 276.159C242.275 276.159 232.337 266.221 232.337 254H236.335C236.335 264.009 244.473 272.161 254.496 272.161V276.159Z" fill="#D51317"/>
<path d="M254.496 288.664C235.385 288.664 219.833 273.111 219.833 254H223.831C223.831 270.899 237.583 284.651 254.496 284.651V288.649V288.664Z" fill="#D51317"/>
<path d="M254.496 301.154C228.495 301.154 207.342 280.015 207.342 254H211.34C211.34 277.804 230.692 297.156 254.496 297.156V301.154Z" fill="#D51317"/>
<path d="M254.496 313.658C221.605 313.658 194.838 286.891 194.838 254H198.836C198.836 284.694 223.802 309.66 254.496 309.66V313.658Z" fill="#D51317"/>
<path d="M254.496 326.162C214.7 326.162 182.334 293.796 182.334 254H186.332C186.332 291.584 216.912 322.164 254.496 322.164V326.162Z" fill="#D51317"/>
<path d="M254.496 338.667C207.81 338.667 169.829 300.686 169.829 254H173.827C173.827 298.474 210.008 334.669 254.496 334.669V338.667Z" fill="#D51317"/>
<defs>
<clipPath id="clip0_31_718">
<rect width="85.3281" height="84.3359" fill="white" transform="matrix(-1 0 0 1 85.3281 254)"/>
</clipPath>
</defs>
</svg>
