<?xml version="1.0" encoding="UTF-8"?>
<svg width="20" height="20" viewBox="0 0 20 20" fill="none" xmlns="http://www.w3.org/2000/svg">
  <path d="M10 10.8333C11.3807 10.8333 12.5 9.71404 12.5 8.33333C12.5 6.95262 11.3807 5.83333 10 5.83333C8.61929 5.83333 7.5 6.95262 7.5 8.33333C7.5 9.71404 8.61929 10.8333 10 10.8333Z" stroke="black" stroke-width="1.5" stroke-linecap="round" stroke-linejoin="round"/>
  <path d="M16.6667 8.33333C16.6667 14.1667 10 18.3333 10 18.3333C10 18.3333 3.33334 14.1667 3.33334 8.33333C3.33334 6.34421 4.12501 4.43655 5.53167 3.02989C6.93834 1.62322 8.84599 0.833332 10 0.833332C11.154 0.833332 13.0617 1.62322 14.4683 3.02989C15.875 4.43655 16.6667 6.34421 16.6667 8.33333Z" stroke="black" stroke-width="1.5" stroke-linecap="round" stroke-linejoin="round"/>
</svg> 