<svg width="22" height="27" viewBox="0 0 22 27" fill="none" xmlns="http://www.w3.org/2000/svg">
<g clip-path="url(#clip0_31_1018)">
<path d="M10.7759 1.21509C15.0089 1.21509 18.2147 3.95219 19.6118 7.57153C20.9659 11.0798 20.583 15.3337 17.7993 18.5559L17.522 18.8645L12.0093 24.7795H12.0024L11.7798 25.0178C11.2521 25.5839 10.4311 25.6196 9.8667 25.1243L9.75732 25.0178L4.02295 18.8645C0.992462 15.6091 0.540235 11.1932 1.93896 7.57153C3.33697 3.95209 6.54297 1.21517 10.7759 1.21509Z" stroke="white" stroke-width="1.5" stroke-miterlimit="10"/>
<path d="M13.5713 11.5633C13.5713 9.90475 12.3218 8.56396 10.7761 8.56396C9.23047 8.56396 7.98096 9.90475 7.98096 11.5633C7.98096 13.2218 9.23047 14.5626 10.7761 14.5626C12.3218 14.5626 13.5713 13.2218 13.5713 11.5633Z" stroke="#0CA590" stroke-linecap="round" stroke-linejoin="round"/>
</g>
<defs>
<clipPath id="clip0_31_1018">
<rect width="21.5524" height="26.6839" fill="white"/>
</clipPath>
</defs>
</svg>
